# xmcd
#
# Track frame offsets:
#	150
#	17691
#	38582
#	56139
#	78594
#	90811
#	112509
#	128883
#	146039
#	159193
#	181052
#	198498
#	217410
#	246153
#
# Disc length: 3664 seconds
#
# Revision: 0
# Processed by: cddbd v1.5.2PL0 Copyright (c) Steve Scherf et al.
# Submitted via: audiograbber 1.83.01
#
DISCID=b30e4e0e
DTITLE=DR.MOJO - AFTER ALL THESE YEARS
DYEAR=2010
DGENRE=Acoustic Blues and More
TTITLE0=After All These Years
TTITLE1=It Never Rains In Southern California
TTITLE2=Jambalaya
TTITLE3=Leaving On A Jetplane
TTITLE4=Apache
TTITLE5=Little Red Rooster
TTITLE6=It's All Over Now Baby Blue
TTITLE7=Black Magic Woman
TTITLE8=Moonshadow
TTITLE9=Lady In Black
TTITLE10=Let It Be
TTITLE11=Mean Old Frisco
TTITLE12=Knocking On Heaven's Door
TTITLE13=On The Road Again
EXTD=
EXTT0=
EXTT1=
EXTT2=
EXTT3=
EXTT4=
EXTT5=
EXTT6=
EXTT7=
EXTT8=
EXTT9=
EXTT10=
EXTT11=
EXTT12=
EXTT13=
PLAYORDER=
